<svg xmlns="http://www.w3.org/2000/svg" viewBox="0 0 32 32" width="32" height="32">
  <!-- Shield background -->
  <path d="M16 1 L29 6 L29 15 C29 23 23 29 16 31 C9 29 3 23 3 15 L3 6 Z" fill="#16a34a"/>
  <!-- Inner shield highlight -->
  <path d="M16 3 L27 7.5 L27 15 C27 22 22 27.5 16 29.5 C10 27.5 5 22 5 15 L5 7.5 Z" fill="#22c55e"/>
  <!-- Leaf shape -->
  <path d="M16 8 C16 8 10 12 10 18 C10 21 12.5 23 16 23 C19.5 23 22 21 22 18 C22 12 16 8 16 8 Z" fill="white" opacity="0.95"/>
  <!-- Leaf vein -->
  <line x1="16" y1="10" x2="16" y2="22" stroke="#22c55e" stroke-width="1" stroke-linecap="round"/>
  <line x1="16" y1="14" x2="13" y2="17" stroke="#22c55e" stroke-width="0.8" stroke-linecap="round"/>
  <line x1="16" y1="14" x2="19" y2="17" stroke="#22c55e" stroke-width="0.8" stroke-linecap="round"/>
  <line x1="16" y1="17" x2="12.5" y2="20" stroke="#22c55e" stroke-width="0.8" stroke-linecap="round"/>
  <line x1="16" y1="17" x2="19.5" y2="20" stroke="#22c55e" stroke-width="0.8" stroke-linecap="round"/>
</svg>
